<svg width="99" height="24" viewBox="0 0 99 24" fill="none" xmlns="http://www.w3.org/2000/svg">
<mask id="path-1-outside-1_4_71" maskUnits="userSpaceOnUse" x="-0.399994" y="-0.160004" width="99" height="24" fill="black">
<rect fill="white" x="-0.399994" y="-0.160004" width="99" height="24"/>
<path d="M0.600006 6.072H9.86401V8.496H0.600006V6.072ZM3.67201 2.808H6.79201V18H3.67201V2.808Z"/>
<path d="M15.4223 0.839996V3.576H11.7983V0.839996H15.4223ZM12.0383 6.072H15.1583V18H12.0383V6.072Z"/>
<path d="M18.2681 6.072H21.3881V18H18.2681V6.072ZM26.9321 5.808C27.6681 5.808 28.3481 5.904 28.9721 6.096C29.5961 6.288 30.1401 6.584 30.6041 6.984C31.0681 7.384 31.4281 7.896 31.6841 8.52C31.9401 9.128 32.0681 9.856 32.0681 10.704V18H28.9481V11.256C28.9481 10.248 28.7001 9.512 28.2041 9.048C27.7241 8.568 26.9321 8.328 25.8281 8.328C24.9961 8.328 24.2441 8.488 23.5721 8.808C22.9001 9.128 22.3561 9.536 21.9401 10.032C21.5241 10.512 21.2841 11.016 21.2201 11.544L21.1961 10.32C21.2761 9.76 21.4601 9.216 21.7481 8.688C22.0361 8.16 22.4201 7.68 22.9001 7.248C23.3961 6.8 23.9801 6.448 24.6521 6.192C25.3241 5.936 26.0841 5.808 26.9321 5.808Z"/>
<path d="M33.5944 6.072H36.9064L42.0664 17.52L39.3784 18L33.5944 6.072ZM48.1864 6.072L39.9304 22.8H36.6904L40.2184 16.224L44.8504 6.072H48.1864Z"/>
<path d="M53.5785 0.839996V3.576H49.9545V0.839996H53.5785ZM50.1945 6.072H53.3145V18H50.1945V6.072Z"/>
<path d="M56.4244 6.072H59.5444V18H56.4244V6.072ZM65.0884 5.808C65.8244 5.808 66.5044 5.904 67.1284 6.096C67.7524 6.288 68.2964 6.584 68.7604 6.984C69.2244 7.384 69.5844 7.896 69.8404 8.52C70.0964 9.128 70.2244 9.856 70.2244 10.704V18H67.1044V11.256C67.1044 10.248 66.8564 9.512 66.3604 9.048C65.8804 8.568 65.0884 8.328 63.9844 8.328C63.1524 8.328 62.4004 8.488 61.7284 8.808C61.0564 9.128 60.5124 9.536 60.0964 10.032C59.6804 10.512 59.4404 11.016 59.3764 11.544L59.3524 10.32C59.4324 9.76 59.6164 9.216 59.9044 8.688C60.1924 8.16 60.5764 7.68 61.0564 7.248C61.5524 6.8 62.1364 6.448 62.8084 6.192C63.4804 5.936 64.2404 5.808 65.0884 5.808ZM75.4804 5.808C76.2164 5.808 76.8964 5.904 77.5204 6.096C78.1444 6.288 78.6884 6.584 79.1524 6.984C79.6164 7.384 79.9764 7.896 80.2324 8.52C80.5044 9.128 80.6404 9.856 80.6404 10.704V18H77.5204V11.256C77.5204 10.248 77.2724 9.512 76.7764 9.048C76.2804 8.568 75.4804 8.328 74.3764 8.328C73.5444 8.328 72.7924 8.488 72.1204 8.808C71.4484 9.128 70.9044 9.536 70.4884 10.032C70.0724 10.512 69.8404 11.016 69.7924 11.544L69.7444 10.248C69.8244 9.72 70.0164 9.192 70.3204 8.664C70.6244 8.136 71.0244 7.656 71.5204 7.224C72.0164 6.792 72.5924 6.448 73.2484 6.192C73.9204 5.936 74.6644 5.808 75.4804 5.808Z"/>
<path d="M89.4233 16.176C88.1273 16.176 86.9833 15.984 85.9913 15.6C85.0153 15.2 84.2553 14.616 83.7113 13.848C83.1673 13.08 82.8953 12.152 82.8953 11.064C82.8953 9.992 83.1593 9.064 83.6873 8.28C84.2153 7.496 84.9673 6.888 85.9433 6.456C86.9353 6.024 88.0953 5.808 89.4233 5.808C89.7913 5.808 90.1433 5.832 90.4793 5.88C90.8313 5.928 91.1753 5.992 91.5113 6.072L97.5353 6.096V8.448C96.7193 8.464 95.8873 8.368 95.0393 8.16C94.2073 7.936 93.4713 7.696 92.8313 7.44L92.7593 7.272C93.3033 7.528 93.8153 7.848 94.2953 8.232C94.7753 8.6 95.1593 9.032 95.4473 9.528C95.7513 10.008 95.9033 10.568 95.9033 11.208C95.9033 12.248 95.6393 13.144 95.1113 13.896C94.5833 14.632 93.8313 15.2 92.8553 15.6C91.8953 15.984 90.7513 16.176 89.4233 16.176ZM93.4313 22.92V22.344C93.4313 21.608 93.1913 21.096 92.7113 20.808C92.2473 20.52 91.6073 20.376 90.7913 20.376H87.0713C86.3513 20.376 85.7433 20.32 85.2473 20.208C84.7673 20.096 84.3833 19.936 84.0953 19.728C83.8073 19.52 83.5993 19.272 83.4713 18.984C83.3433 18.712 83.2793 18.416 83.2793 18.096C83.2793 17.456 83.4873 16.976 83.9033 16.656C84.3193 16.32 84.8793 16.096 85.5833 15.984C86.2873 15.872 87.0633 15.848 87.9113 15.912L89.4233 16.176C88.4153 16.208 87.6633 16.296 87.1673 16.44C86.6873 16.568 86.4473 16.832 86.4473 17.232C86.4473 17.472 86.5433 17.664 86.7353 17.808C86.9273 17.936 87.1993 18 87.5513 18H91.4633C92.5353 18 93.4473 18.112 94.1993 18.336C94.9673 18.576 95.5513 18.968 95.9513 19.512C96.3513 20.072 96.5513 20.832 96.5513 21.792V22.92H93.4313ZM89.4233 13.92C90.1113 13.92 90.7113 13.808 91.2233 13.584C91.7513 13.36 92.1593 13.04 92.4473 12.624C92.7353 12.192 92.8793 11.68 92.8793 11.088C92.8793 10.48 92.7353 9.96 92.4473 9.528C92.1593 9.096 91.7593 8.768 91.2473 8.544C90.7353 8.304 90.1273 8.184 89.4233 8.184C88.7353 8.184 88.1273 8.304 87.5993 8.544C87.0713 8.768 86.6633 9.096 86.3753 9.528C86.0873 9.96 85.9433 10.48 85.9433 11.088C85.9433 11.68 86.0873 12.192 86.3753 12.624C86.6633 13.04 87.0633 13.36 87.5753 13.584C88.1033 13.808 88.7193 13.92 89.4233 13.92Z"/>
</mask>
<path d="M0.600006 6.072H9.86401V8.496H0.600006V6.072ZM3.67201 2.808H6.79201V18H3.67201V2.808Z" fill="#282828"/>
<path d="M15.4223 0.839996V3.576H11.7983V0.839996H15.4223ZM12.0383 6.072H15.1583V18H12.0383V6.072Z" fill="#282828"/>
<path d="M18.2681 6.072H21.3881V18H18.2681V6.072ZM26.9321 5.808C27.6681 5.808 28.3481 5.904 28.9721 6.096C29.5961 6.288 30.1401 6.584 30.6041 6.984C31.0681 7.384 31.4281 7.896 31.6841 8.52C31.9401 9.128 32.0681 9.856 32.0681 10.704V18H28.9481V11.256C28.9481 10.248 28.7001 9.512 28.2041 9.048C27.7241 8.568 26.9321 8.328 25.8281 8.328C24.9961 8.328 24.2441 8.488 23.5721 8.808C22.9001 9.128 22.3561 9.536 21.9401 10.032C21.5241 10.512 21.2841 11.016 21.2201 11.544L21.1961 10.32C21.2761 9.76 21.4601 9.216 21.7481 8.688C22.0361 8.16 22.4201 7.68 22.9001 7.248C23.3961 6.8 23.9801 6.448 24.6521 6.192C25.3241 5.936 26.0841 5.808 26.9321 5.808Z" fill="#282828"/>
<path d="M33.5944 6.072H36.9064L42.0664 17.52L39.3784 18L33.5944 6.072ZM48.1864 6.072L39.9304 22.8H36.6904L40.2184 16.224L44.8504 6.072H48.1864Z" fill="#282828"/>
<path d="M53.5785 0.839996V3.576H49.9545V0.839996H53.5785ZM50.1945 6.072H53.3145V18H50.1945V6.072Z" fill="#282828"/>
<path d="M56.4244 6.072H59.5444V18H56.4244V6.072ZM65.0884 5.808C65.8244 5.808 66.5044 5.904 67.1284 6.096C67.7524 6.288 68.2964 6.584 68.7604 6.984C69.2244 7.384 69.5844 7.896 69.8404 8.52C70.0964 9.128 70.2244 9.856 70.2244 10.704V18H67.1044V11.256C67.1044 10.248 66.8564 9.512 66.3604 9.048C65.8804 8.568 65.0884 8.328 63.9844 8.328C63.1524 8.328 62.4004 8.488 61.7284 8.808C61.0564 9.128 60.5124 9.536 60.0964 10.032C59.6804 10.512 59.4404 11.016 59.3764 11.544L59.3524 10.32C59.4324 9.76 59.6164 9.216 59.9044 8.688C60.1924 8.16 60.5764 7.68 61.0564 7.248C61.5524 6.8 62.1364 6.448 62.8084 6.192C63.4804 5.936 64.2404 5.808 65.0884 5.808ZM75.4804 5.808C76.2164 5.808 76.8964 5.904 77.5204 6.096C78.1444 6.288 78.6884 6.584 79.1524 6.984C79.6164 7.384 79.9764 7.896 80.2324 8.52C80.5044 9.128 80.6404 9.856 80.6404 10.704V18H77.5204V11.256C77.5204 10.248 77.2724 9.512 76.7764 9.048C76.2804 8.568 75.4804 8.328 74.3764 8.328C73.5444 8.328 72.7924 8.488 72.1204 8.808C71.4484 9.128 70.9044 9.536 70.4884 10.032C70.0724 10.512 69.8404 11.016 69.7924 11.544L69.7444 10.248C69.8244 9.72 70.0164 9.192 70.3204 8.664C70.6244 8.136 71.0244 7.656 71.5204 7.224C72.0164 6.792 72.5924 6.448 73.2484 6.192C73.9204 5.936 74.6644 5.808 75.4804 5.808Z" fill="#282828"/>
<path d="M89.4233 16.176C88.1273 16.176 86.9833 15.984 85.9913 15.6C85.0153 15.2 84.2553 14.616 83.7113 13.848C83.1673 13.08 82.8953 12.152 82.8953 11.064C82.8953 9.992 83.1593 9.064 83.6873 8.28C84.2153 7.496 84.9673 6.888 85.9433 6.456C86.9353 6.024 88.0953 5.808 89.4233 5.808C89.7913 5.808 90.1433 5.832 90.4793 5.88C90.8313 5.928 91.1753 5.992 91.5113 6.072L97.5353 6.096V8.448C96.7193 8.464 95.8873 8.368 95.0393 8.16C94.2073 7.936 93.4713 7.696 92.8313 7.44L92.7593 7.272C93.3033 7.528 93.8153 7.848 94.2953 8.232C94.7753 8.6 95.1593 9.032 95.4473 9.528C95.7513 10.008 95.9033 10.568 95.9033 11.208C95.9033 12.248 95.6393 13.144 95.1113 13.896C94.5833 14.632 93.8313 15.2 92.8553 15.6C91.8953 15.984 90.7513 16.176 89.4233 16.176ZM93.4313 22.92V22.344C93.4313 21.608 93.1913 21.096 92.7113 20.808C92.2473 20.52 91.6073 20.376 90.7913 20.376H87.0713C86.3513 20.376 85.7433 20.32 85.2473 20.208C84.7673 20.096 84.3833 19.936 84.0953 19.728C83.8073 19.52 83.5993 19.272 83.4713 18.984C83.3433 18.712 83.2793 18.416 83.2793 18.096C83.2793 17.456 83.4873 16.976 83.9033 16.656C84.3193 16.32 84.8793 16.096 85.5833 15.984C86.2873 15.872 87.0633 15.848 87.9113 15.912L89.4233 16.176C88.4153 16.208 87.6633 16.296 87.1673 16.44C86.6873 16.568 86.4473 16.832 86.4473 17.232C86.4473 17.472 86.5433 17.664 86.7353 17.808C86.9273 17.936 87.1993 18 87.5513 18H91.4633C92.5353 18 93.4473 18.112 94.1993 18.336C94.9673 18.576 95.5513 18.968 95.9513 19.512C96.3513 20.072 96.5513 20.832 96.5513 21.792V22.92H93.4313ZM89.4233 13.92C90.1113 13.92 90.7113 13.808 91.2233 13.584C91.7513 13.36 92.1593 13.04 92.4473 12.624C92.7353 12.192 92.8793 11.68 92.8793 11.088C92.8793 10.48 92.7353 9.96 92.4473 9.528C92.1593 9.096 91.7593 8.768 91.2473 8.544C90.7353 8.304 90.1273 8.184 89.4233 8.184C88.7353 8.184 88.1273 8.304 87.5993 8.544C87.0713 8.768 86.6633 9.096 86.3753 9.528C86.0873 9.96 85.9433 10.48 85.9433 11.088C85.9433 11.68 86.0873 12.192 86.3753 12.624C86.6633 13.04 87.0633 13.36 87.5753 13.584C88.1033 13.808 88.7193 13.92 89.4233 13.92Z" fill="#282828"/>
<path d="M0.600006 6.072V5.572H0.100006V6.072H0.600006ZM9.86401 6.072H10.364V5.572H9.86401V6.072ZM9.86401 8.496V8.996H10.364V8.496H9.86401ZM0.600006 8.496H0.100006V8.996H0.600006V8.496ZM3.67201 2.808V2.308H3.17201V2.808H3.67201ZM6.79201 2.808H7.29201V2.308H6.79201V2.808ZM6.79201 18V18.5H7.29201V18H6.79201ZM3.67201 18H3.17201V18.5H3.67201V18ZM15.4223 0.839996H15.9223V0.339996H15.4223V0.839996ZM15.4223 3.576V4.076H15.9223V3.576H15.4223ZM11.7983 3.576H11.2983V4.076H11.7983V3.576ZM11.7983 0.839996V0.339996H11.2983V0.839996H11.7983ZM12.0383 6.072V5.572H11.5383V6.072H12.0383ZM15.1583 6.072H15.6583V5.572H15.1583V6.072ZM15.1583 18V18.5H15.6583V18H15.1583ZM12.0383 18H11.5383V18.5H12.0383V18ZM18.2681 6.072V5.572H17.7681V6.072H18.2681ZM21.3881 6.072H21.8881V5.572H21.3881V6.072ZM21.3881 18V18.5H21.8881V18H21.3881ZM18.2681 18H17.7681V18.5H18.2681V18ZM28.9721 6.096L29.1192 5.61811L29.1192 5.61811L28.9721 6.096ZM30.6041 6.984L30.2777 7.3627L30.2777 7.3627L30.6041 6.984ZM31.6841 8.52L31.2215 8.70978L31.2233 8.71403L31.6841 8.52ZM32.0681 18V18.5H32.5681V18H32.0681ZM28.9481 18H28.4481V18.5H28.9481V18ZM28.2041 9.048L27.8506 9.40155L27.8565 9.40744L27.8626 9.41313L28.2041 9.048ZM23.5721 8.808L23.7871 9.25943L23.7871 9.25943L23.5721 8.808ZM21.9401 10.032L22.318 10.3595L22.3232 10.3533L21.9401 10.032ZM21.2201 11.544L20.7202 11.5538L21.7165 11.6042L21.2201 11.544ZM21.1961 10.32L20.7012 10.2493L20.6954 10.2893L20.6962 10.3298L21.1961 10.32ZM21.7481 8.688L22.1871 8.92742L22.1871 8.92742L21.7481 8.688ZM22.9001 7.248L23.2346 7.61964L23.2353 7.61905L22.9001 7.248ZM24.6521 6.192L24.4741 5.72475L24.4741 5.72475L24.6521 6.192ZM33.5944 6.072V5.572H32.7962L33.1445 6.29016L33.5944 6.072ZM36.9064 6.072L37.3622 5.86654L37.2295 5.572H36.9064V6.072ZM42.0664 17.52L42.1543 18.0122L42.7859 17.8994L42.5222 17.3145L42.0664 17.52ZM39.3784 18L38.9285 18.2182L39.0936 18.5588L39.4663 18.4922L39.3784 18ZM48.1864 6.072L48.6347 6.29328L48.9907 5.572H48.1864V6.072ZM39.9304 22.8V23.3H40.2412L40.3787 23.0213L39.9304 22.8ZM36.6904 22.8L36.2498 22.5636L35.8547 23.3H36.6904V22.8ZM40.2184 16.224L40.659 16.4604L40.6666 16.4462L40.6733 16.4315L40.2184 16.224ZM44.8504 6.072V5.572H44.5289L44.3955 5.86445L44.8504 6.072ZM53.5785 0.839996H54.0785V0.339996H53.5785V0.839996ZM53.5785 3.576V4.076H54.0785V3.576H53.5785ZM49.9545 3.576H49.4545V4.076H49.9545V3.576ZM49.9545 0.839996V0.339996H49.4545V0.839996H49.9545ZM50.1945 6.072V5.572H49.6945V6.072H50.1945ZM53.3145 6.072H53.8145V5.572H53.3145V6.072ZM53.3145 18V18.5H53.8145V18H53.3145ZM50.1945 18H49.6945V18.5H50.1945V18ZM56.4244 6.072V5.572H55.9244V6.072H56.4244ZM59.5444 6.072H60.0444V5.572H59.5444V6.072ZM59.5444 18V18.5H60.0444V18H59.5444ZM56.4244 18H55.9244V18.5H56.4244V18ZM67.1284 6.096L67.2754 5.61811L67.2754 5.61811L67.1284 6.096ZM68.7604 6.984L68.4339 7.3627L68.4339 7.3627L68.7604 6.984ZM69.8404 8.52L69.3778 8.70978L69.3796 8.71403L69.8404 8.52ZM70.2244 18V18.5H70.7244V18H70.2244ZM67.1044 18H66.6044V18.5H67.1044V18ZM66.3604 9.048L66.0068 9.40155L66.0127 9.40744L66.0188 9.41313L66.3604 9.048ZM61.7284 8.808L61.9433 9.25943L61.9433 9.25943L61.7284 8.808ZM60.0964 10.032L60.4743 10.3595L60.4795 10.3533L60.0964 10.032ZM59.3764 11.544L58.8765 11.5538L59.8727 11.6042L59.3764 11.544ZM59.3524 10.32L58.8574 10.2493L58.8517 10.2893L58.8525 10.3298L59.3524 10.32ZM59.9044 8.688L60.3433 8.92742L60.3433 8.92742L59.9044 8.688ZM61.0564 7.248L61.3909 7.61964L61.3915 7.61905L61.0564 7.248ZM62.8084 6.192L62.6304 5.72475L62.6304 5.72475L62.8084 6.192ZM77.5204 6.096L77.6674 5.61811L77.6674 5.61811L77.5204 6.096ZM79.1524 6.984L79.4789 6.60529L79.4789 6.60529L79.1524 6.984ZM80.2324 8.52L79.7698 8.70978L79.7728 8.71703L79.776 8.72418L80.2324 8.52ZM80.6404 18V18.5H81.1404V18H80.6404ZM77.5204 18H77.0204V18.5H77.5204V18ZM76.7764 9.048L76.4286 9.40735L76.4348 9.41313L76.7764 9.048ZM70.4884 10.032L70.8663 10.3595L70.8715 10.3533L70.4884 10.032ZM69.7924 11.544L69.2927 11.5625L70.2903 11.5893L69.7924 11.544ZM69.7444 10.248L69.25 10.1731L69.243 10.2195L69.2447 10.2665L69.7444 10.248ZM70.3204 8.664L70.7537 8.91348L70.7537 8.91348L70.3204 8.664ZM71.5204 7.224L71.192 6.84696L71.192 6.84696L71.5204 7.224ZM73.2484 6.192L73.0704 5.72474L73.0666 5.72621L73.2484 6.192ZM85.9913 15.6L85.8016 16.0627L85.8108 16.0663L85.9913 15.6ZM83.7113 13.848L83.3032 14.137L83.3032 14.137L83.7113 13.848ZM83.6873 8.28L83.2725 8.0007L83.2725 8.0007L83.6873 8.28ZM85.9433 6.456L85.7436 5.99757L85.7409 5.99878L85.9433 6.456ZM90.4793 5.88L90.4085 6.37498L90.4117 6.37541L90.4793 5.88ZM91.5113 6.072L91.3954 6.5584L91.4516 6.57176L91.5093 6.57199L91.5113 6.072ZM97.5353 6.096H98.0353V5.59798L97.5372 5.596L97.5353 6.096ZM97.5353 8.448L97.5451 8.9479L98.0353 8.93829V8.448H97.5353ZM95.0393 8.16L94.9092 8.64293L94.9201 8.6456L95.0393 8.16ZM92.8313 7.44L92.3717 7.63695L92.4533 7.82732L92.6456 7.90424L92.8313 7.44ZM92.7593 7.272L92.9722 6.81959L91.7812 6.25914L92.2997 7.46895L92.7593 7.272ZM94.2953 8.232L93.9828 8.62251L93.991 8.6288L94.2953 8.232ZM95.4473 9.528L95.0149 9.77906L95.0197 9.78739L95.0248 9.79552L95.4473 9.528ZM95.1113 13.896L95.5175 14.1875L95.5205 14.1833L95.1113 13.896ZM92.8553 15.6L93.041 16.0643L93.0449 16.0627L92.8553 15.6ZM93.4313 22.92H92.9313V23.42H93.4313V22.92ZM92.7113 20.808L92.4475 21.2329L92.454 21.2367L92.7113 20.808ZM85.2473 20.208L85.1336 20.6949L85.1371 20.6957L85.2473 20.208ZM84.0953 19.728L83.8025 20.1333L83.8025 20.1333L84.0953 19.728ZM83.4713 18.984L83.9283 18.7809L83.9237 18.7711L83.4713 18.984ZM83.9033 16.656L84.2082 17.0524L84.2174 17.045L83.9033 16.656ZM87.9113 15.912L87.9973 15.4194L87.9732 15.4153L87.9489 15.4134L87.9113 15.912ZM87.1673 16.44L87.2961 16.9232L87.3067 16.9202L87.1673 16.44ZM86.7353 17.808L86.4353 18.208L86.4464 18.2163L86.4579 18.224L86.7353 17.808ZM94.1993 18.336L94.3484 17.8587L94.342 17.8568L94.1993 18.336ZM95.9513 19.512L96.3582 19.2214L96.3541 19.2158L95.9513 19.512ZM96.5513 22.92V23.42H97.0513V22.92H96.5513ZM91.2233 13.584L91.028 13.1237L91.0228 13.1259L91.2233 13.584ZM92.4473 12.624L92.8584 12.9086L92.8633 12.9013L92.4473 12.624ZM91.2473 8.544L91.035 8.99688L91.0468 9.00208L91.2473 8.544ZM87.5993 8.544L87.7946 9.00444L87.8062 8.99918L87.5993 8.544ZM86.3753 12.624L85.9592 12.9014L85.9642 12.9086L86.3753 12.624ZM87.5753 13.584L87.3748 14.0421L87.38 14.0443L87.5753 13.584ZM0.600006 6.572H9.86401V5.572H0.600006V6.572ZM9.36401 6.072V8.496H10.364V6.072H9.36401ZM9.86401 7.996H0.600006V8.996H9.86401V7.996ZM1.10001 8.496V6.072H0.100006V8.496H1.10001ZM3.67201 3.308H6.79201V2.308H3.67201V3.308ZM6.29201 2.808V18H7.29201V2.808H6.29201ZM6.79201 17.5H3.67201V18.5H6.79201V17.5ZM4.17201 18V2.808H3.17201V18H4.17201ZM14.9223 0.839996V3.576H15.9223V0.839996H14.9223ZM15.4223 3.076H11.7983V4.076H15.4223V3.076ZM12.2983 3.576V0.839996H11.2983V3.576H12.2983ZM11.7983 1.34H15.4223V0.339996H11.7983V1.34ZM12.0383 6.572H15.1583V5.572H12.0383V6.572ZM14.6583 6.072V18H15.6583V6.072H14.6583ZM15.1583 17.5H12.0383V18.5H15.1583V17.5ZM12.5383 18V6.072H11.5383V18H12.5383ZM18.2681 6.572H21.3881V5.572H18.2681V6.572ZM20.8881 6.072V18H21.8881V6.072H20.8881ZM21.3881 17.5H18.2681V18.5H21.3881V17.5ZM18.7681 18V6.072H17.7681V18H18.7681ZM26.9321 6.308C27.6245 6.308 28.2544 6.39828 28.8251 6.57389L29.1192 5.61811C28.4419 5.40972 27.7117 5.308 26.9321 5.308V6.308ZM28.8251 6.57389C29.3875 6.74693 29.8694 7.01072 30.2777 7.3627L30.9306 6.60529C30.4109 6.15727 29.8048 5.82906 29.1192 5.61811L28.8251 6.57389ZM30.2777 7.3627C30.6762 7.70629 30.9924 8.15111 31.2215 8.70977L32.1467 8.33022C31.8639 7.64088 31.46 7.0617 30.9306 6.60529L30.2777 7.3627ZM31.2233 8.71403C31.4472 9.24579 31.5681 9.90442 31.5681 10.704H32.5681C32.5681 9.80757 32.433 9.0102 32.1449 8.32597L31.2233 8.71403ZM31.5681 10.704V18H32.5681V10.704H31.5681ZM32.0681 17.5H28.9481V18.5H32.0681V17.5ZM29.4481 18V11.256H28.4481V18H29.4481ZM29.4481 11.256C29.4481 10.1768 29.1831 9.27916 28.5457 8.68286L27.8626 9.41313C28.2171 9.74483 28.4481 10.3192 28.4481 11.256H29.4481ZM28.5577 8.69444C27.9397 8.07648 26.9854 7.828 25.8281 7.828V8.828C26.8789 8.828 27.5085 9.05951 27.8506 9.40155L28.5577 8.69444ZM25.8281 7.828C24.9306 7.828 24.1039 8.001 23.3572 8.35657L23.7871 9.25943C24.3844 8.97499 25.0617 8.828 25.8281 8.828V7.828ZM23.3572 8.35657C22.6301 8.70279 22.0255 9.15212 21.557 9.71069L22.3232 10.3533C22.6867 9.91987 23.1702 9.55321 23.7871 9.25943L23.3572 8.35657ZM21.5623 9.70453C21.0939 10.2449 20.8019 10.839 20.7238 11.4838L21.7165 11.6042C21.7663 11.193 21.9543 10.779 22.318 10.3595L21.5623 9.70453ZM21.72 11.5342L21.696 10.3102L20.6962 10.3298L20.7202 11.5538L21.72 11.5342ZM21.6911 10.3907C21.7621 9.8935 21.9259 9.40632 22.1871 8.92742L21.3092 8.44857C20.9944 9.02567 20.7901 9.6265 20.7012 10.2493L21.6911 10.3907ZM22.1871 8.92742C22.4461 8.45263 22.7936 8.0166 23.2346 7.61964L22.5656 6.87635C22.0467 7.3434 21.6262 7.86736 21.3092 8.44857L22.1871 8.92742ZM23.2353 7.61905C23.6819 7.21563 24.2116 6.89487 24.8301 6.65924L24.4741 5.72475C23.7487 6.00112 23.1103 6.38436 22.565 6.87695L23.2353 7.61905ZM24.8301 6.65924C25.4361 6.4284 26.1343 6.308 26.9321 6.308V5.308C26.034 5.308 25.2122 5.4436 24.4741 5.72475L24.8301 6.65924ZM33.5944 6.572H36.9064V5.572H33.5944V6.572ZM36.4505 6.27746L41.6105 17.7255L42.5222 17.3145L37.3622 5.86654L36.4505 6.27746ZM41.9785 17.0278L39.2905 17.5078L39.4663 18.4922L42.1543 18.0122L41.9785 17.0278ZM39.8283 17.7818L34.0443 5.85384L33.1445 6.29016L38.9285 18.2182L39.8283 17.7818ZM47.738 5.85071L39.482 22.5787L40.3787 23.0213L48.6347 6.29328L47.738 5.85071ZM39.9304 22.3H36.6904V23.3H39.9304V22.3ZM37.131 23.0364L40.659 16.4604L39.7778 15.9876L36.2498 22.5636L37.131 23.0364ZM40.6733 16.4315L45.3053 6.27955L44.3955 5.86445L39.7635 16.0164L40.6733 16.4315ZM44.8504 6.572H48.1864V5.572H44.8504V6.572ZM53.0785 0.839996V3.576H54.0785V0.839996H53.0785ZM53.5785 3.076H49.9545V4.076H53.5785V3.076ZM50.4545 3.576V0.839996H49.4545V3.576H50.4545ZM49.9545 1.34H53.5785V0.339996H49.9545V1.34ZM50.1945 6.572H53.3145V5.572H50.1945V6.572ZM52.8145 6.072V18H53.8145V6.072H52.8145ZM53.3145 17.5H50.1945V18.5H53.3145V17.5ZM50.6945 18V6.072H49.6945V18H50.6945ZM56.4244 6.572H59.5444V5.572H56.4244V6.572ZM59.0444 6.072V18H60.0444V6.072H59.0444ZM59.5444 17.5H56.4244V18.5H59.5444V17.5ZM56.9244 18V6.072H55.9244V18H56.9244ZM65.0884 6.308C65.7808 6.308 66.4106 6.39828 66.9813 6.57389L67.2754 5.61811C66.5982 5.40972 65.868 5.308 65.0884 5.308V6.308ZM66.9813 6.57389C67.5437 6.74693 68.0256 7.01072 68.4339 7.3627L69.0869 6.60529C68.5672 6.15727 67.961 5.82906 67.2754 5.61811L66.9813 6.57389ZM68.4339 7.3627C68.8325 7.70629 69.1486 8.15111 69.3778 8.70977L70.303 8.33022C70.0202 7.64088 69.6163 7.06171 69.0869 6.60529L68.4339 7.3627ZM69.3796 8.71403C69.6035 9.24579 69.7244 9.90442 69.7244 10.704H70.7244C70.7244 9.80757 70.5893 9.0102 70.3012 8.32597L69.3796 8.71403ZM69.7244 10.704V18H70.7244V10.704H69.7244ZM70.2244 17.5H67.1044V18.5H70.2244V17.5ZM67.6044 18V11.256H66.6044V18H67.6044ZM67.6044 11.256C67.6044 10.1768 67.3394 9.27916 66.702 8.68286L66.0188 9.41313C66.3734 9.74483 66.6044 10.3192 66.6044 11.256H67.6044ZM66.7139 8.69444C66.096 8.07648 65.1416 7.828 63.9844 7.828V8.828C65.0351 8.828 65.6648 9.05951 66.0068 9.40155L66.7139 8.69444ZM63.9844 7.828C63.0868 7.828 62.2601 8.001 61.5134 8.35657L61.9433 9.25943C62.5407 8.97499 63.2179 8.828 63.9844 8.828V7.828ZM61.5134 8.35657C60.7864 8.70279 60.1818 9.15212 59.7133 9.71069L60.4795 10.3533C60.843 9.91987 61.3264 9.55321 61.9433 9.25943L61.5134 8.35657ZM59.7185 9.70453C59.2502 10.2449 58.9582 10.839 58.88 11.4838L59.8727 11.6042C59.9226 11.193 60.1106 10.779 60.4742 10.3595L59.7185 9.70453ZM59.8763 11.5342L59.8523 10.3102L58.8525 10.3298L58.8765 11.5538L59.8763 11.5342ZM59.8474 10.3907C59.9184 9.89349 60.0821 9.40632 60.3433 8.92742L59.4654 8.44857C59.1507 9.02567 58.9464 9.6265 58.8574 10.2493L59.8474 10.3907ZM60.3433 8.92742C60.6023 8.45263 60.9498 8.0166 61.3909 7.61964L60.7219 6.87635C60.203 7.3434 59.7825 7.86736 59.4654 8.44857L60.3433 8.92742ZM61.3915 7.61905C61.8382 7.21563 62.3678 6.89487 62.9864 6.65924L62.6304 5.72475C61.9049 6.00112 61.2666 6.38436 60.7212 6.87695L61.3915 7.61905ZM62.9864 6.65924C63.5923 6.4284 64.2905 6.308 65.0884 6.308V5.308C64.1902 5.308 63.3684 5.4436 62.6304 5.72475L62.9864 6.65924ZM75.4804 6.308C76.1728 6.308 76.8026 6.39828 77.3733 6.57389L77.6674 5.61811C76.9902 5.40972 76.26 5.308 75.4804 5.308V6.308ZM77.3733 6.57389C77.9357 6.74693 78.4176 7.01072 78.8259 7.3627L79.4789 6.60529C78.9592 6.15728 78.353 5.82906 77.6674 5.61811L77.3733 6.57389ZM78.8259 7.3627C79.2245 7.70629 79.5406 8.15111 79.7698 8.70978L80.695 8.33022C80.4122 7.64088 80.0083 7.0617 79.4789 6.60529L78.8259 7.3627ZM79.776 8.72418C80.0125 9.25294 80.1404 9.90783 80.1404 10.704H81.1404C81.1404 9.80416 80.9962 9.00305 80.6888 8.31581L79.776 8.72418ZM80.1404 10.704V18H81.1404V10.704H80.1404ZM80.6404 17.5H77.5204V18.5H80.6404V17.5ZM78.0204 18V11.256H77.0204V18H78.0204ZM78.0204 11.256C78.0204 10.1768 77.7554 9.27916 77.118 8.68286L76.4348 9.41313C76.7894 9.74483 77.0204 10.3192 77.0204 11.256H78.0204ZM77.1241 8.6887C76.4923 8.07733 75.5356 7.828 74.3764 7.828V8.828C75.4251 8.828 76.0684 9.05866 76.4287 9.4073L77.1241 8.6887ZM74.3764 7.828C73.4788 7.828 72.6521 8.001 71.9054 8.35657L72.3354 9.25943C72.9327 8.97499 73.6099 8.828 74.3764 8.828V7.828ZM71.9054 8.35657C71.1784 8.70279 70.5738 9.15212 70.1053 9.71069L70.8715 10.3533C71.235 9.91988 71.7184 9.55321 72.3354 9.25943L71.9054 8.35657ZM70.1105 9.70453C69.6398 10.2476 69.3537 10.8471 69.2944 11.4987L70.2903 11.5893C70.3271 11.1849 70.5049 10.7764 70.8662 10.3595L70.1105 9.70453ZM70.292 11.5255L70.244 10.2295L69.2447 10.2665L69.2927 11.5625L70.292 11.5255ZM70.2387 10.3229C70.3082 9.86441 70.4764 9.39511 70.7537 8.91348L69.8871 8.41451C69.5564 8.98889 69.3406 9.57558 69.25 10.1731L70.2387 10.3229ZM70.7537 8.91348C71.0279 8.4372 71.3912 7.99953 71.8488 7.60104L71.192 6.84696C70.6575 7.31247 70.2209 7.83479 69.8871 8.41451L70.7537 8.91348ZM71.8488 7.60104C72.2984 7.20943 72.824 6.89435 73.4302 6.65779L73.0666 5.72621C72.3608 6.00165 71.7344 6.37456 71.192 6.84696L71.8488 7.60104ZM73.4264 6.65924C74.0344 6.42761 74.7171 6.308 75.4804 6.308V5.308C74.6117 5.308 73.8064 5.44438 73.0704 5.72475L73.4264 6.65924ZM89.4233 15.676C88.1759 15.676 87.0951 15.4911 86.1718 15.1337L85.8108 16.0663C86.8714 16.4768 88.0786 16.676 89.4233 16.676V15.676ZM86.1809 15.1373C85.2817 14.7689 84.602 14.2405 84.1193 13.559L83.3032 14.137C83.9085 14.9915 84.7488 15.6311 85.8016 16.0627L86.1809 15.1373ZM84.1193 13.559C83.6441 12.8881 83.3953 12.0652 83.3953 11.064H82.3953C82.3953 12.2388 82.6904 13.2718 83.3032 14.137L84.1193 13.559ZM83.3953 11.064C83.3953 10.0777 83.6368 9.25001 84.102 8.5593L83.2725 8.0007C82.6817 8.87798 82.3953 9.90628 82.3953 11.064H83.3953ZM84.102 8.5593C84.5708 7.86318 85.2443 7.31215 86.1456 6.91321L85.7409 5.99878C84.6902 6.46384 83.8597 7.12882 83.2725 8.0007L84.102 8.5593ZM86.1429 6.91441C87.0593 6.51533 88.1487 6.308 89.4233 6.308V5.308C88.0418 5.308 86.8112 5.53267 85.7436 5.99758L86.1429 6.91441ZM89.4233 6.308C89.7696 6.308 90.0978 6.33058 90.4085 6.37497L90.55 5.38502C90.1887 5.33341 89.813 5.308 89.4233 5.308V6.308ZM90.4117 6.37541C90.7479 6.42126 91.0758 6.4823 91.3954 6.5584L91.6271 5.58559C91.2747 5.50169 90.9146 5.43473 90.5468 5.38458L90.4117 6.37541ZM91.5093 6.57199L97.5333 6.59599L97.5372 5.596L91.5132 5.572L91.5093 6.57199ZM97.0353 6.096V8.448H98.0353V6.096H97.0353ZM97.5255 7.94809C96.7558 7.96318 95.9671 7.87277 95.1584 7.67439L94.9201 8.6456C95.8074 8.86323 96.6827 8.96481 97.5451 8.9479L97.5255 7.94809ZM95.1692 7.67719C94.3517 7.45708 93.6349 7.22295 93.0169 6.97576L92.6456 7.90424C93.3076 8.16904 94.0628 8.41491 94.9093 8.6428L95.1692 7.67719ZM93.2908 7.24304L93.2188 7.07504L92.2997 7.46895L92.3717 7.63695L93.2908 7.24304ZM92.5464 7.72441C93.0541 7.96335 93.5328 8.26237 93.9829 8.62243L94.6076 7.84156C94.0977 7.43363 93.5524 7.09265 92.9722 6.81959L92.5464 7.72441ZM93.991 8.6288C94.4221 8.95926 94.7614 9.3426 95.0149 9.77906L95.8797 9.27693C95.5571 8.7214 95.1284 8.24073 94.5995 7.83519L93.991 8.6288ZM95.0248 9.79552C95.272 10.1857 95.4033 10.6504 95.4033 11.208H96.4033C96.4033 10.4856 96.2306 9.83031 95.8697 9.26047L95.0248 9.79552ZM95.4033 11.208C95.4033 12.1593 95.1634 12.9517 94.7021 13.6087L95.5205 14.1833C96.1152 13.3363 96.4033 12.3367 96.4033 11.208H95.4033ZM94.705 13.6045C94.2402 14.2524 93.5693 14.767 92.6656 15.1373L93.0449 16.0627C94.0932 15.633 94.9263 15.0116 95.5175 14.1875L94.705 13.6045ZM92.6696 15.1358C91.7828 15.4905 90.7049 15.676 89.4233 15.676V16.676C90.7976 16.676 92.0077 16.4775 93.041 16.0642L92.6696 15.1358ZM93.9313 22.92V22.344H92.9313V22.92H93.9313ZM93.9313 22.344C93.9313 21.4952 93.6461 20.7858 92.9685 20.3793L92.454 21.2367C92.7364 21.4062 92.9313 21.7208 92.9313 22.344H93.9313ZM92.9749 20.3832C92.4018 20.0275 91.6575 19.876 90.7913 19.876V20.876C91.557 20.876 92.0927 21.0125 92.4476 21.2328L92.9749 20.3832ZM90.7913 19.876H87.0713V20.876H90.7913V19.876ZM87.0713 19.876C86.3743 19.876 85.8058 19.8215 85.3574 19.7203L85.1371 20.6957C85.6807 20.8185 86.3282 20.876 87.0713 20.876V19.876ZM85.3609 19.7211C84.9221 19.6187 84.6058 19.48 84.388 19.3227L83.8025 20.1333C84.1607 20.392 84.6124 20.5733 85.1336 20.6949L85.3609 19.7211ZM84.388 19.3227C84.1623 19.1597 84.0159 18.9783 83.9282 18.7809L83.0143 19.1871C83.1826 19.5657 83.4522 19.8803 83.8025 20.1333L84.388 19.3227ZM83.9237 18.7711C83.829 18.57 83.7793 18.3472 83.7793 18.096H82.7793C82.7793 18.4847 82.8575 18.854 83.0188 19.1969L83.9237 18.7711ZM83.7793 18.096C83.7793 17.5733 83.9424 17.2567 84.2081 17.0523L83.5984 16.2597C83.0321 16.6953 82.7793 17.3387 82.7793 18.096H83.7793ZM84.2174 17.045C84.5464 16.7792 85.0164 16.5805 85.6618 16.4778L85.5047 15.4902C84.7421 15.6115 84.0921 15.8608 83.5891 16.267L84.2174 17.045ZM85.6618 16.4778C86.3209 16.3729 87.0572 16.349 87.8736 16.4106L87.9489 15.4134C87.0693 15.347 86.2536 15.3711 85.5047 15.4902L85.6618 16.4778ZM87.8253 16.4045L89.3373 16.6685L89.5093 15.6834L87.9973 15.4194L87.8253 16.4045ZM89.4074 15.6762C88.3893 15.7086 87.586 15.7978 87.0279 15.9598L87.3067 16.9202C87.7405 16.7942 88.4413 16.7074 89.4391 16.6757L89.4074 15.6762ZM87.0384 15.9569C86.7406 16.0363 86.4626 16.1718 86.2573 16.3977C86.0433 16.633 85.9473 16.9238 85.9473 17.232H86.9473C86.9473 17.1402 86.9712 17.099 86.9972 17.0703C87.0319 17.0322 87.1139 16.9717 87.2961 16.9231L87.0384 15.9569ZM85.9473 17.232C85.9473 17.6294 86.1174 17.9696 86.4353 18.208L87.0353 17.408C86.9692 17.3584 86.9473 17.3146 86.9473 17.232H85.9473ZM86.4579 18.224C86.7647 18.4285 87.1489 18.5 87.5513 18.5V17.5C87.2496 17.5 87.0898 17.4434 87.0126 17.392L86.4579 18.224ZM87.5513 18.5H91.4633V17.5H87.5513V18.5ZM91.4633 18.5C92.5033 18.5 93.3643 18.609 94.0565 18.8152L94.342 17.8568C93.5302 17.615 92.5672 17.5 91.4633 17.5V18.5ZM94.0501 18.8132C94.7365 19.0277 95.2229 19.3655 95.5484 19.8082L96.3541 19.2158C95.8796 18.5705 95.198 18.1243 94.3484 17.8588L94.0501 18.8132ZM95.5444 19.8026C95.8641 20.2502 96.0513 20.8962 96.0513 21.792H97.0513C97.0513 20.7678 96.8384 19.8938 96.3581 19.2214L95.5444 19.8026ZM96.0513 21.792V22.92H97.0513V21.792H96.0513ZM96.5513 22.42H93.4313V23.42H96.5513V22.42ZM89.4233 14.42C90.1647 14.42 90.8357 14.2993 91.4237 14.0421L91.0228 13.1259C90.5869 13.3167 90.0578 13.42 89.4233 13.42V14.42ZM91.4185 14.0443C92.0217 13.7884 92.5095 13.4124 92.8584 12.9086L92.0362 12.3394C91.809 12.6676 91.4808 12.9316 91.028 13.1237L91.4185 14.0443ZM92.8633 12.9013C93.2135 12.3761 93.3793 11.7644 93.3793 11.088H92.3793C92.3793 11.5956 92.2571 12.0079 92.0312 12.3466L92.8633 12.9013ZM93.3793 11.088C93.3793 10.3985 93.2149 9.77806 92.8633 9.25065L92.0312 9.80535C92.2556 10.1419 92.3793 10.5614 92.3793 11.088H93.3793ZM92.8633 9.25065C92.5181 8.73289 92.0404 8.34522 91.4477 8.08592L91.0468 9.00208C91.4781 9.19077 91.8004 9.45911 92.0312 9.80535L92.8633 9.25065ZM91.4595 8.09127C90.8668 7.81347 90.1831 7.684 89.4233 7.684V8.684C90.0714 8.684 90.6037 8.79452 91.035 8.99673L91.4595 8.09127ZM89.4233 7.684C88.677 7.684 87.9963 7.81429 87.3924 8.08881L87.8062 8.99918C88.2582 8.7937 88.7935 8.684 89.4233 8.684V7.684ZM87.404 8.08371C86.7959 8.34168 86.307 8.72902 85.9592 9.25065L86.7913 9.80535C87.0195 9.46297 87.3466 9.19431 87.7945 9.00429L87.404 8.08371ZM85.9592 9.25065C85.6076 9.77805 85.4433 10.3985 85.4433 11.088H86.4433C86.4433 10.5614 86.5669 10.1419 86.7913 9.80535L85.9592 9.25065ZM85.4433 11.088C85.4433 11.7644 85.6091 12.3761 85.9592 12.9013L86.7913 12.3466C86.5654 12.0079 86.4433 11.5955 86.4433 11.088H85.4433ZM85.9642 12.9086C86.3104 13.4087 86.7871 13.7849 87.3748 14.0421L87.7757 13.1259C87.3395 12.9351 87.0162 12.6713 86.7864 12.3394L85.9642 12.9086ZM87.38 14.0443C87.9821 14.2997 88.667 14.42 89.4233 14.42V13.42C88.7715 13.42 88.2244 13.3163 87.7705 13.1237L87.38 14.0443Z" fill="#282828" mask="url(#path-1-outside-1_4_71)"/>
</svg>
