<svg width="123" height="96" viewBox="0 0 123 96" fill="none" xmlns="http://www.w3.org/2000/svg">
<path d="M94.0388 91.4315C107.824 91.4315 119 80.2471 119 66.4511C119 52.655 107.824 41.4706 94.0388 41.4706H93.8984C93.9914 40.4421 94.0388 39.4004 94.0388 38.3481C94.0388 19.3781 78.6721 4 59.7172 4C40.7616 4 25.3953 19.3781 25.3953 38.3481C25.3953 38.3774 25.3954 38.4074 25.3954 38.4368C13.188 40.9167 4 51.7176 4 64.6662C4 79.4478 15.9738 91.4309 30.7441 91.4309" stroke="#6B6C75" stroke-width="8" stroke-linecap="round" stroke-linejoin="round"/>
<path d="M63.0753 91.4315V60.7123M63.0753 60.7123L75.6781 73M63.0753 60.7123L50.4726 73" stroke="#6B6C75" stroke-width="8" stroke-linecap="round" stroke-linejoin="round"/>
</svg>
